<svg style="display:none">
	<symbol id="search" xmlns="http://www.w3.org/2000/svg" fill="none" viewBox="0 0 24 24" stroke="currentColor"><path d="M11 19C15.4183 19 19 15.4183 19 11C19 6.58172 15.4183 3 11 3C6.58172 3 3 6.58172 3 11C3 15.4183 6.58172 19 11 19Z" stroke="currentColor" stroke-width="2" stroke-linecap="round" stroke-linejoin="round"/><path d="M21 21L16.65 16.65" stroke="currentColor" stroke-width="2" stroke-linecap="round" stroke-linejoin="round"/></symbol>
	<symbol id="x-circle" xmlns="http://www.w3.org/2000/svg" fill="none" viewBox="0 0 24 24" stroke="currentColor"><path d="M12 22C17.5228 22 22 17.5228 22 12C22 6.47715 17.5228 2 12 2C6.47715 2 2 6.47715 2 12C2 17.5228 6.47715 22 12 22Z" stroke="currentColor" stroke-width="2" stroke-linecap="round" stroke-linejoin="round"/><path d="M15 9L9 15" stroke="currentColor" stroke-width="2" stroke-linecap="round" stroke-linejoin="round"/><path d="M9 9L15 15" stroke="currentColor" stroke-width="2" stroke-linecap="round" stroke-linejoin="round"/></symbol>
	<symbol id="chevrons-left" xmlns="http://www.w3.org/2000/svg" fill="none" viewBox="0 0 24 24" stroke="currentColor"><path d="M11 17L6 12L11 7" stroke="currentColor" stroke-width="2" stroke-linecap="round" stroke-linejoin="round"/><path d="M18 17L13 12L18 7" stroke="currentColor" stroke-width="2" stroke-linecap="round" stroke-linejoin="round"/></symbol>
	<symbol id="chevrons-right" xmlns="http://www.w3.org/2000/svg" fill="none" viewBox="0 0 24 24" stroke="currentColor"><path d="M13 17L18 12L13 7" stroke="currentColor" stroke-width="2" stroke-linecap="round" stroke-linejoin="round"/><path d="M6 17L11 12L6 7" stroke="currentColor" stroke-width="2" stroke-linecap="round" stroke-linejoin="round"/></symbol>
	<symbol id="chevron-left" xmlns="http://www.w3.org/2000/svg" fill="none" viewBox="0 0 24 24" stroke="currentColor"><path d="M15 18L9 12L15 6" stroke="currentColor" stroke-width="2" stroke-linecap="round" stroke-linejoin="round"/></symbol>
	<symbol id="chevron-right" xmlns="http://www.w3.org/2000/svg" fill="none" viewBox="0 0 24 24" stroke="currentColor"><path d="M9 18L15 12L9 6" stroke="currentColor" stroke-width="2" stroke-linecap="round" stroke-linejoin="round"/></symbol>
	<symbol id="play-circle" xmlns="http://www.w3.org/2000/svg" fill="none" viewBox="0 0 24 24" stroke="currentColor"><path d="M12 22C17.5228 22 22 17.5228 22 12C22 6.47715 17.5228 2 12 2C6.47715 2 2 6.47715 2 12C2 17.5228 6.47715 22 12 22Z" stroke="currentColor" stroke-width="2" stroke-linecap="round" stroke-linejoin="round"/><path d="M10 8L16 12L10 16V8Z" stroke="currentColor" stroke-width="2" stroke-linecap="round" stroke-linejoin="round"/></symbol>
	<symbol id="acessorios" xmlns="http://www.w3.org/2000/svg" fill="none" viewBox="0 0 36 37" stroke="currentColor"><g clip-path="url(#clip0_115_3156)"><path d="M6.75 2.8584V9.6084H15.75V2.8584C15.75 1.61387 14.7445 0.608398 13.5 0.608398H9C7.75547 0.608398 6.75 1.61387 6.75 2.8584ZM6.75 11.8584C3.02344 11.8584 0 14.8818 0 18.6084V33.2334C0 35.0967 1.51172 36.6084 3.375 36.6084H19.125C20.9883 36.6084 22.5 35.0967 22.5 33.2334V18.6084C22.5 14.8818 19.4766 11.8584 15.75 11.8584H6.75ZM11.25 18.6084C12.7418 18.6084 14.1726 19.201 15.2275 20.2559C16.2824 21.3108 16.875 22.7416 16.875 24.2334C16.875 25.7252 16.2824 27.156 15.2275 28.2109C14.1726 29.2658 12.7418 29.8584 11.25 29.8584C9.75816 29.8584 8.32742 29.2658 7.27252 28.2109C6.21763 27.156 5.625 25.7252 5.625 24.2334C5.625 22.7416 6.21763 21.3108 7.27252 20.2559C8.32742 19.201 9.75816 18.6084 11.25 18.6084ZM27 3.9834C27 3.88496 26.9297 3.77246 26.8453 3.73027L24.75 2.8584L23.8781 0.763086C23.8359 0.678711 23.7234 0.608398 23.625 0.608398C23.5266 0.608398 23.4141 0.678711 23.3719 0.763086L22.5 2.8584L20.4047 3.73027C20.3203 3.77246 20.25 3.88496 20.25 3.9834C20.25 4.08184 20.3203 4.19434 20.4047 4.23652L22.5 5.1084L23.3719 7.20371C23.4141 7.28809 23.5266 7.3584 23.625 7.3584C23.7234 7.3584 23.8359 7.28809 23.8781 7.20371L24.75 5.1084L26.8453 4.23652C26.9297 4.19434 27 4.08184 27 3.9834ZM32.3719 7.20371C32.4141 7.28809 32.5266 7.3584 32.625 7.3584C32.7234 7.3584 32.8359 7.28809 32.8781 7.20371L33.75 5.1084L35.8453 4.23652C35.9297 4.19434 36 4.08184 36 3.9834C36 3.88496 35.9297 3.77246 35.8453 3.73027L33.75 2.8584L32.8781 0.763086C32.8359 0.678711 32.7234 0.608398 32.625 0.608398C32.5266 0.608398 32.4141 0.678711 32.3719 0.763086L31.5 2.8584L29.4047 3.73027C29.3203 3.77246 29.25 3.88496 29.25 3.9834C29.25 4.08184 29.3203 4.19434 29.4047 4.23652L31.5 5.1084L32.3719 7.20371ZM32.8781 14.2631C32.8359 14.1787 32.7234 14.1084 32.625 14.1084C32.5266 14.1084 32.4141 14.1787 32.3719 14.2631L31.5 16.3584L29.4047 17.2303C29.3203 17.2725 29.25 17.385 29.25 17.4834C29.25 17.5818 29.3203 17.6943 29.4047 17.7365L31.5 18.6084L32.3719 20.7037C32.4141 20.7881 32.5266 20.8584 32.625 20.8584C32.7234 20.8584 32.8359 20.7881 32.8781 20.7037L33.75 18.6084L35.8453 17.7365C35.9297 17.6943 36 17.5818 36 17.4834C36 17.385 35.9297 17.2725 35.8453 17.2303L33.75 16.3584L32.8781 14.2631ZM31.5 10.7334C31.5 10.635 31.4297 10.5225 31.3453 10.4803L29.25 9.6084L28.3781 7.51309C28.3359 7.42871 28.2234 7.3584 28.125 7.3584C28.0266 7.3584 27.9141 7.42871 27.8719 7.51309L27 9.6084L24.9047 10.4803C24.8203 10.5225 24.75 10.635 24.75 10.7334C24.75 10.8318 24.8203 10.9443 24.9047 10.9865L27 11.8584L27.8719 13.9537C27.9141 14.0381 28.0266 14.1084 28.125 14.1084C28.2234 14.1084 28.3359 14.0381 28.3781 13.9537L29.25 11.8584L31.3453 10.9865C31.4297 10.9443 31.5 10.8318 31.5 10.7334Z" fill="currentColor"/></g><defs><clipPath id="clip0_115_3156"><rect width="36" height="36" fill="currentColor" transform="translate(0 0.608398)"/></clipPath></defs></symbol>
	<symbol id="financiamento" xmlns="http://www.w3.org/2000/svg" fill="none" viewBox="0 0 24 24" stroke="currentColor"><path d="M12 1V23" stroke="currentColor" stroke-width="2" stroke-linecap="round" stroke-linejoin="round"/><path d="M17 5H9.5C8.57174 5 7.6815 5.36875 7.02513 6.02513C6.36875 6.6815 6 7.57174 6 8.5C6 9.42826 6.36875 10.3185 7.02513 10.9749C7.6815 11.6313 8.57174 12 9.5 12H14.5C15.4283 12 16.3185 12.3687 16.9749 13.0251C17.6313 13.6815 18 14.5717 18 15.5C18 16.4283 17.6313 17.3185 16.9749 17.9749C16.3185 18.6313 15.4283 19 14.5 19H6" stroke="currentColor" stroke-width="2" stroke-linecap="round" stroke-linejoin="round"/></symbol>
	<symbol id="blindagem" xmlns="http://www.w3.org/2000/svg" fill="none" viewBox="0 0 36 37" stroke="currentColor"><path d="M9.50625 8.86309L7.67109 14.1084H28.3289L26.4937 8.86309C26.1773 7.96309 25.3266 7.3584 24.3703 7.3584H11.6297C10.6734 7.3584 9.82266 7.96309 9.50625 8.86309ZM2.78437 14.4459L5.25938 7.37949C6.20859 4.67246 8.76094 2.8584 11.6297 2.8584H24.3703C27.2391 2.8584 29.7914 4.67246 30.7406 7.37949L33.2156 14.4459C34.8469 15.1209 36 16.7311 36 18.6084V28.7334V32.1084C36 33.3529 34.9945 34.3584 33.75 34.3584H31.5C30.2555 34.3584 29.25 33.3529 29.25 32.1084V28.7334H6.75V32.1084C6.75 33.3529 5.74453 34.3584 4.5 34.3584H2.25C1.00547 34.3584 0 33.3529 0 32.1084V28.7334V18.6084C0 16.7311 1.15312 15.1209 2.78437 14.4459ZM9 20.8584C9 20.2617 8.76295 19.6894 8.34099 19.2674C7.91903 18.8455 7.34674 18.6084 6.75 18.6084C6.15326 18.6084 5.58097 18.8455 5.15901 19.2674C4.73705 19.6894 4.5 20.2617 4.5 20.8584C4.5 21.4551 4.73705 22.0274 5.15901 22.4494C5.58097 22.8713 6.15326 23.1084 6.75 23.1084C7.34674 23.1084 7.91903 22.8713 8.34099 22.4494C8.76295 22.0274 9 21.4551 9 20.8584ZM29.25 23.1084C29.8467 23.1084 30.419 22.8713 30.841 22.4494C31.2629 22.0274 31.5 21.4551 31.5 20.8584C31.5 20.2617 31.2629 19.6894 30.841 19.2674C30.419 18.8455 29.8467 18.6084 29.25 18.6084C28.6533 18.6084 28.081 18.8455 27.659 19.2674C27.2371 19.6894 27 20.2617 27 20.8584C27 21.4551 27.2371 22.0274 27.659 22.4494C28.081 22.8713 28.6533 23.1084 29.25 23.1084Z" fill="currentColor"/></symbol>
	<symbol id="estetica" xmlns="http://www.w3.org/2000/svg" fill="none" viewBox="0 0 46 37" stroke="currentColor"><g clip-path="url(#clip0_115_3152)"><path d="M12.5445 7.3584H16.25V14.1084H8.32578L10.4633 8.77168C10.8008 7.9209 11.6234 7.3584 12.5445 7.3584ZM19.625 14.1084V7.3584H25.3344C26.0164 7.3584 26.6633 7.66777 27.0922 8.20215L31.8172 14.1084H19.625ZM37.6391 14.1787L30.6078 5.38965C29.3281 3.78652 27.3875 2.8584 25.3344 2.8584H12.5445C9.78125 2.8584 7.29922 4.53887 6.27969 7.09824L3.35469 14.4178C1.68125 15.0787 0.5 16.7029 0.5 18.6084V26.4834C0.5 27.7279 1.50547 28.7334 2.75 28.7334H5.09141C5.62578 31.9256 8.40313 34.3584 11.75 34.3584C15.0969 34.3584 17.8742 31.9256 18.4086 28.7334H27.5914C28.1258 31.9256 30.9031 34.3584 34.25 34.3584C37.5969 34.3584 40.3742 31.9256 40.9086 28.7334H43.25C44.4945 28.7334 45.5 27.7279 45.5 26.4834V23.1084C45.5 18.524 42.0688 14.7412 37.6391 14.1787ZM31.0648 26.4834C31.2081 26.0598 31.434 25.669 31.7296 25.3335C32.0252 24.998 32.3845 24.7246 32.7866 24.5291C33.1888 24.3336 33.6257 24.22 34.0722 24.1949C34.5186 24.1697 34.9655 24.2336 35.3871 24.3826C35.8086 24.5317 36.1964 24.763 36.5278 25.0632C36.8591 25.3633 37.1276 25.7264 37.3175 26.1312C37.5074 26.536 37.6149 26.9745 37.6339 27.4212C37.6529 27.8679 37.583 28.3139 37.4281 28.7334C37.2849 29.157 37.0589 29.5478 36.7633 29.8833C36.4678 30.2188 36.1085 30.4922 35.7063 30.6877C35.3042 30.8832 34.8672 30.9968 34.4208 31.0219C33.9744 31.0471 33.5274 30.9832 33.1059 30.8342C32.6843 30.6851 32.2966 30.4538 31.9652 30.1536C31.6338 29.8535 31.3654 29.4904 31.1755 29.0856C30.9856 28.6808 30.878 28.2423 30.859 27.7956C30.84 27.3489 30.91 26.9029 31.0648 26.4834ZM11.75 24.2334C12.6451 24.2334 13.5036 24.589 14.1365 25.2219C14.7694 25.8548 15.125 26.7133 15.125 27.6084C15.125 28.5035 14.7694 29.3619 14.1365 29.9949C13.5036 30.6278 12.6451 30.9834 11.75 30.9834C10.8549 30.9834 9.99645 30.6278 9.36351 29.9949C8.73058 29.3619 8.375 28.5035 8.375 27.6084C8.375 26.7133 8.73058 25.8548 9.36351 25.2219C9.99645 24.589 10.8549 24.2334 11.75 24.2334Z" fill="currentColor"/></g><defs><clipPath id="clip0_115_3152"><rect width="45" height="36" fill="currentColor" transform="translate(0.5 0.608398)"/></clipPath></defs></symbol>
	<symbol id="seguro" xmlns="http://www.w3.org/2000/svg" fill="none" viewBox="0 0 46 37" stroke="currentColor"><g clip-path="url(#clip0_115_3150)"><path d="M12.875 1.1709C12.4109 1.1709 12.0031 1.45215 11.8273 1.88105L9.76015 7.08418L4.40937 5.45293C3.9664 5.31934 3.48828 5.46699 3.2 5.82559C2.91171 6.18418 2.87656 6.6834 3.10156 7.08418L5.8789 11.9428L1.2664 15.1209C0.886715 15.3811 0.703902 15.8451 0.809371 16.2951C0.91484 16.7451 1.28046 17.0826 1.73046 17.1529L7.26406 18.0107L6.87031 23.6006C6.83515 24.0576 7.08828 24.4936 7.50312 24.6904C7.91796 24.8873 8.41015 24.817 8.75468 24.5076L11.2367 22.2225L11.9047 19.7334L12.6359 17.0193C13.1984 14.917 14.7805 13.3561 16.707 12.7373L19.5898 8.5748C20.3844 7.42871 21.4461 6.54277 22.6484 5.95918C22.6203 5.91699 22.5922 5.8748 22.557 5.83262C22.2687 5.47402 21.7906 5.32637 21.3477 5.45996L15.9898 7.08418L13.9227 1.88105C13.7469 1.45215 13.3391 1.1709 12.875 1.1709ZM26.3539 11.9639L35.8883 14.5162C36.3453 14.6428 36.6828 15.0365 36.718 15.5146L37.0414 19.4873L22.8734 15.6904L25.1375 12.4139C25.4047 12.0201 25.8969 11.8443 26.3539 11.9639ZM21.4391 9.85449L18.0711 14.7271C16.5523 14.9381 15.2375 16.035 14.8156 17.61L14.0844 20.324L12.9172 24.6693L12.3336 26.842C12.0102 28.0443 12.7273 29.2748 13.9227 29.5982L15.0125 29.8865C16.2148 30.21 17.4453 29.4928 17.7687 28.2975L18.3523 26.1248L35.7406 30.7865L35.157 32.9592C34.8336 34.1615 35.5508 35.392 36.7461 35.7154L37.8359 36.0037C39.0383 36.3271 40.2687 35.61 40.5922 34.4146L41.1758 32.242L42.3359 27.8896L43.0672 25.1756C43.4891 23.6006 42.8914 21.9975 41.6891 21.0482L41.2109 15.142C41.0211 12.7725 39.3547 10.7826 37.0625 10.1639L27.5141 7.61855C25.2148 6.9998 22.782 7.8998 21.432 9.85449H21.4391ZM20.2437 19.0654C20.458 19.1227 20.6588 19.2216 20.8348 19.3564C21.0108 19.4913 21.1585 19.6595 21.2695 19.8515C21.3805 20.0434 21.4526 20.2554 21.4817 20.4752C21.5108 20.695 21.4963 20.9184 21.4391 21.1326C21.3818 21.3468 21.2829 21.5477 21.1481 21.7237C21.0132 21.8997 20.845 22.0474 20.653 22.1584C20.4611 22.2694 20.2491 22.3415 20.0293 22.3706C19.8095 22.3997 19.5861 22.3852 19.3719 22.3279C18.9392 22.2123 18.5703 21.9296 18.3461 21.5419C18.1219 21.1542 18.0609 20.6934 18.1766 20.2607C18.2922 19.8281 18.5749 19.4591 18.9626 19.235C19.3503 19.0108 19.8111 18.9498 20.2437 19.0654ZM35.5648 24.9154C35.6122 24.6912 35.7048 24.479 35.8369 24.2917C35.969 24.1044 36.1379 23.946 36.3332 23.8262C36.5286 23.7063 36.7463 23.6275 36.9731 23.5945C37.1999 23.5615 37.431 23.5751 37.6524 23.6344C37.8738 23.6937 38.0808 23.7975 38.2607 23.9394C38.4407 24.0813 38.5899 24.2583 38.6992 24.4598C38.8084 24.6612 38.8755 24.8828 38.8964 25.1111C38.9172 25.3393 38.8913 25.5694 38.8203 25.7873C38.7631 26.0015 38.6642 26.2024 38.5293 26.3784C38.3944 26.5544 38.2262 26.7021 38.0343 26.8131C37.8423 26.9241 37.6304 26.9962 37.4106 27.0253C37.1907 27.0544 36.9673 27.0399 36.7531 26.9826C36.5389 26.9254 36.3381 26.8265 36.1621 26.6916C35.986 26.5568 35.8383 26.3885 35.7273 26.1966C35.6163 26.0046 35.5442 25.7927 35.5152 25.5729C35.4861 25.353 35.5006 25.1297 35.5578 24.9154H35.5648Z" fill="currentColor"/></g><defs><clipPath id="clip0_115_3150"><rect width="45" height="36" fill="currentColor" transform="translate(0.5 0.608398)"/></clipPath></defs></symbol>
	<symbol id="pelicula-seguranca" xmlns="http://www.w3.org/2000/svg" fill="none" viewBox="0 0 36 37" stroke="currentColor"><g clip-path="url(#clip0_115_3154)"><path d="M18 0.608398C18.3235 0.608398 18.6469 0.678711 18.9422 0.812305L32.1821 6.43027C33.7289 7.08418 34.8821 8.60996 34.875 10.4521C34.8399 17.4271 31.9711 30.1889 19.8563 35.9897C18.6821 36.5522 17.318 36.5522 16.1438 35.9897C4.02894 30.1889 1.16019 17.4271 1.12503 10.4521C1.118 8.60996 2.27113 7.08418 3.818 6.43027L17.0649 0.812305C17.3532 0.678711 17.6766 0.608398 18 0.608398Z" fill="currentColor"/></g><defs><clipPath id="clip0_115_3154"><rect width="36" height="36" fill="currentColor" transform="translate(0 0.608398)"/></clipPath></defs></symbol>
</svg>